<svg xmlns="http://www.w3.org/2000/svg" viewBox="0 0 433.33 20.65"><defs><style>.cls-1{fill:#d3d3d3;}.cls-2{fill:#5ac7da;}</style></defs><title>oleg-chursin-wedding-photography-logo-hr</title><g id="Layer_2" data-name="Layer 2"><g id="Layer_1-2" data-name="Layer 1"><path class="cls-1" d="M7.06,1.14a6.85,6.85,0,0,1,3,.62,6.63,6.63,0,0,1,2.22,1.67,7.43,7.43,0,0,1,1.39,2.46,9,9,0,0,1,.49,3,9.1,9.1,0,0,1-.49,3,7.44,7.44,0,0,1-1.39,2.46A6.51,6.51,0,0,1,10,16a7,7,0,0,1-3,.61,7,7,0,0,1-3-.61,6.52,6.52,0,0,1-2.22-1.66A7.44,7.44,0,0,1,.48,11.85a9.1,9.1,0,0,1-.48-3,9,9,0,0,1,.48-3A7.43,7.43,0,0,1,1.88,3.43,6.63,6.63,0,0,1,4.1,1.75,6.85,6.85,0,0,1,7.06,1.14Zm0,2.11a4.13,4.13,0,0,0-2,.48A4,4,0,0,0,3.63,5a5.73,5.73,0,0,0-.79,1.81,8.38,8.38,0,0,0,0,4.13,5.72,5.72,0,0,0,.79,1.81A4,4,0,0,0,5,14a4.13,4.13,0,0,0,2,.48,4.13,4.13,0,0,0,2-.48,4,4,0,0,0,1.39-1.27,5.73,5.73,0,0,0,.79-1.81,8.38,8.38,0,0,0,0-4.13A5.74,5.74,0,0,0,10.49,5,4,4,0,0,0,9.09,3.72,4.13,4.13,0,0,0,7.06,3.24Z"/><path class="cls-1" d="M16.47,1.49h2.58V14h7.49v2.23H16.47Z"/><path class="cls-1" d="M28.33,1.49H38.94V3.72h-8V7.58h7.43V9.68H30.91V14h8.18v2.23H28.33Z"/><path class="cls-1" d="M54.19,16.23H52.54l-.39-1.73a6.14,6.14,0,0,1-2.06,1.63,5.85,5.85,0,0,1-2.37.45,7,7,0,0,1-3-.61,6.51,6.51,0,0,1-2.22-1.66,7.43,7.43,0,0,1-1.39-2.46,9.09,9.09,0,0,1-.49-3,9,9,0,0,1,.49-3,7.42,7.42,0,0,1,1.39-2.46,6.63,6.63,0,0,1,2.22-1.67,6.85,6.85,0,0,1,3-.62A8,8,0,0,1,50,1.46a6.09,6.09,0,0,1,1.93.95A5.26,5.26,0,0,1,53.33,4,5.54,5.54,0,0,1,54,6.17H51.51A3.16,3.16,0,0,0,50.21,4a3.76,3.76,0,0,0-1.16-.56,4.78,4.78,0,0,0-1.34-.19,4.13,4.13,0,0,0-2,.48A4,4,0,0,0,44.28,5a5.73,5.73,0,0,0-.79,1.81,8.38,8.38,0,0,0,0,4.13,5.72,5.72,0,0,0,.79,1.81A4,4,0,0,0,45.68,14a4.13,4.13,0,0,0,2,.48,4.8,4.8,0,0,0,1.75-.26,3.48,3.48,0,0,0,1.29-.81,3.37,3.37,0,0,0,.79-1.29,5.45,5.45,0,0,0,.29-1.69H47.92v-2h6.28Z"/><path class="cls-1" d="M72.69,6.17A5.25,5.25,0,0,0,72.24,5a3.26,3.26,0,0,0-.74-.93,3.3,3.3,0,0,0-1.06-.61A4.21,4.21,0,0,0,69,3.24a4.13,4.13,0,0,0-2,.48A4,4,0,0,0,65.59,5a5.73,5.73,0,0,0-.79,1.81,8.38,8.38,0,0,0,0,4.13,5.72,5.72,0,0,0,.79,1.81A4,4,0,0,0,67,14a4.13,4.13,0,0,0,2,.48,3.67,3.67,0,0,0,1.53-.3,3.41,3.41,0,0,0,1.14-.83,3.9,3.9,0,0,0,.74-1.23,5.9,5.9,0,0,0,.35-1.51h2.52A7,7,0,0,1,74.73,13a5.92,5.92,0,0,1-1.31,1.89,5.79,5.79,0,0,1-1.94,1.23,6.73,6.73,0,0,1-2.46.43,7,7,0,0,1-3-.61,6.52,6.52,0,0,1-2.22-1.66,7.44,7.44,0,0,1-1.39-2.46,9.1,9.1,0,0,1-.48-3,9,9,0,0,1,.48-3,7.43,7.43,0,0,1,1.39-2.46,6.63,6.63,0,0,1,2.22-1.67,6.85,6.85,0,0,1,3-.62,7.81,7.81,0,0,1,2.33.34,6,6,0,0,1,1.93,1A5.15,5.15,0,0,1,74.63,4a5.5,5.5,0,0,1,.64,2.13Z"/><path class="cls-1" d="M77.59,1.49h2.58V7.35h6.71V1.49h2.58V16.23H86.88V9.58H80.17v6.65H77.59Z"/><path class="cls-1" d="M92.39,1.49H95v8.59q0,.74.07,1.51A3.44,3.44,0,0,0,95.45,13a2.63,2.63,0,0,0,1,1,5.05,5.05,0,0,0,3.9,0,2.63,2.63,0,0,0,1-1,3.44,3.44,0,0,0,.41-1.37q.07-.76.07-1.51V1.49h2.58v9.44a6.48,6.48,0,0,1-.43,2.48,4.77,4.77,0,0,1-1.23,1.77,5.12,5.12,0,0,1-1.91,1.06,8.92,8.92,0,0,1-5,0,5.12,5.12,0,0,1-1.91-1.06,4.76,4.76,0,0,1-1.23-1.77,6.48,6.48,0,0,1-.43-2.48Z"/><path class="cls-1" d="M107.46,1.49h7a5.46,5.46,0,0,1,3.65,1.05,3.67,3.67,0,0,1,1.22,2.93,4.28,4.28,0,0,1-.31,1.74,3.8,3.8,0,0,1-.72,1.11,2.81,2.81,0,0,1-.82.61q-.4.19-.59.25v0a2.66,2.66,0,0,1,.71.21,2.11,2.11,0,0,1,.71.53,2.88,2.88,0,0,1,.55.94,4.15,4.15,0,0,1,.22,1.45,13.06,13.06,0,0,0,.2,2.36,3.11,3.11,0,0,0,.61,1.52h-2.77a2.4,2.4,0,0,1-.34-1.05q-.05-.58-.05-1.12a10.64,10.64,0,0,0-.12-1.74,3,3,0,0,0-.45-1.22,1.93,1.93,0,0,0-.9-.71,4,4,0,0,0-1.46-.23H110v6.07h-2.58ZM110,8.2h4.23a2.69,2.69,0,0,0,1.88-.59,2.28,2.28,0,0,0,.64-1.77,2.73,2.73,0,0,0-.21-1.15A1.67,1.67,0,0,0,116,4a2.08,2.08,0,0,0-.83-.33,5.51,5.51,0,0,0-1-.08H110Z"/><path class="cls-1" d="M123.69,11.31a3.3,3.3,0,0,0,.29,1.45,2.61,2.61,0,0,0,.81,1,3.43,3.43,0,0,0,1.19.56,5.75,5.75,0,0,0,1.46.18,4.66,4.66,0,0,0,1.45-.2,2.92,2.92,0,0,0,1-.51,1.83,1.83,0,0,0,.54-.71,2.14,2.14,0,0,0,.17-.82,1.76,1.76,0,0,0-.38-1.25,2.19,2.19,0,0,0-.84-.57,17.56,17.56,0,0,0-1.83-.55l-2.57-.67a5.5,5.5,0,0,1-1.58-.65,3.78,3.78,0,0,1-1-.9,3.16,3.16,0,0,1-.53-1.05,4.23,4.23,0,0,1-.15-1.14,3.84,3.84,0,0,1,.46-1.93,4.14,4.14,0,0,1,1.23-1.35,5.41,5.41,0,0,1,1.73-.79,7.61,7.61,0,0,1,2-.26,7.71,7.71,0,0,1,2.18.3,5.38,5.38,0,0,1,1.8.9,4.4,4.4,0,0,1,1.23,1.48,4.36,4.36,0,0,1,.45,2h-2.58a2.49,2.49,0,0,0-1-2,3.86,3.86,0,0,0-2.21-.59,4.82,4.82,0,0,0-.93.09,2.93,2.93,0,0,0-.87.31,1.9,1.9,0,0,0-.65.59,1.59,1.59,0,0,0-.26.93,1.58,1.58,0,0,0,.49,1.23,3.13,3.13,0,0,0,1.27.67l.65.18,1.27.34,1.37.36,1,.26a4.32,4.32,0,0,1,1.26.62,4,4,0,0,1,.9.9,3.71,3.71,0,0,1,.54,1.08,4,4,0,0,1,.18,1.16,4.17,4.17,0,0,1-.51,2.12,4.29,4.29,0,0,1-1.33,1.44,5.79,5.79,0,0,1-1.88.82,9,9,0,0,1-2.15.26,8.85,8.85,0,0,1-2.37-.31,5.56,5.56,0,0,1-1.94-.95,4.65,4.65,0,0,1-1.32-1.64,5.47,5.47,0,0,1-.52-2.36Z"/><path class="cls-1" d="M135.37,1.49H138V16.23h-2.58Z"/><path class="cls-1" d="M141,1.49h2.73l6.73,10.86h0V1.49H153V16.23h-2.73L143.53,5.39h-.06V16.23H141Z"/><path class="cls-1" d="M161.43,0h2.11V20.65h-2.11Z"/><path class="cls-2" d="M170.63,1.49h2.62l2.66,11.27h0l3-11.27h2.64l2.89,11.27h0l2.75-11.27h2.62l-4.07,14.74h-2.62L180.23,5h0l-3,11.27h-2.66Z"/><path class="cls-2" d="M191.57,1.49h10.61V3.72h-8V7.58h7.43V9.68h-7.43V14h8.18v2.23H191.57Z"/><path class="cls-2" d="M204.58,1.49h6.11a6.88,6.88,0,0,1,2.93.58,5.45,5.45,0,0,1,2,1.58A6.75,6.75,0,0,1,216.81,6a10.43,10.43,0,0,1,.38,2.87,10.43,10.43,0,0,1-.38,2.87,6.74,6.74,0,0,1-1.17,2.34,5.44,5.44,0,0,1-2,1.58,6.87,6.87,0,0,1-2.93.58h-6.11Zm2.58,12.64h2.54a6.44,6.44,0,0,0,2.47-.4,3.61,3.61,0,0,0,1.51-1.12,4,4,0,0,0,.74-1.67,10.44,10.44,0,0,0,.2-2.08,10.43,10.43,0,0,0-.2-2.07,4,4,0,0,0-.74-1.67A3.6,3.6,0,0,0,212.16,4a6.43,6.43,0,0,0-2.47-.4h-2.54Z"/><path class="cls-2" d="M219.48,1.49h6.11a6.88,6.88,0,0,1,2.93.58,5.45,5.45,0,0,1,2,1.58A6.75,6.75,0,0,1,231.71,6a10.43,10.43,0,0,1,.38,2.87,10.43,10.43,0,0,1-.38,2.87,6.74,6.74,0,0,1-1.17,2.34,5.44,5.44,0,0,1-2,1.58,6.87,6.87,0,0,1-2.93.58h-6.11Zm2.58,12.64h2.54a6.45,6.45,0,0,0,2.47-.4,3.6,3.6,0,0,0,1.51-1.12,4,4,0,0,0,.74-1.67,10.44,10.44,0,0,0,.2-2.08,10.43,10.43,0,0,0-.2-2.07,4,4,0,0,0-.74-1.67A3.6,3.6,0,0,0,227.07,4a6.44,6.44,0,0,0-2.47-.4h-2.54Z"/><path class="cls-2" d="M234.39,1.49H237V16.23h-2.58Z"/><path class="cls-2" d="M240,1.49h2.73l6.73,10.86h0V1.49H252V16.23h-2.73L242.54,5.39h-.06V16.23H240Z"/><path class="cls-2" d="M267.9,16.23h-1.65l-.39-1.73a6.14,6.14,0,0,1-2.06,1.63,5.86,5.86,0,0,1-2.37.45,6.94,6.94,0,0,1-3-.61,6.51,6.51,0,0,1-2.22-1.66,7.44,7.44,0,0,1-1.39-2.46,9.1,9.1,0,0,1-.49-3,9,9,0,0,1,.49-3,7.43,7.43,0,0,1,1.39-2.46,6.62,6.62,0,0,1,2.22-1.67,6.85,6.85,0,0,1,3-.62,8,8,0,0,1,2.28.32,6.1,6.1,0,0,1,1.93.95A5.27,5.27,0,0,1,267,4a5.56,5.56,0,0,1,.7,2.19h-2.52A3.16,3.16,0,0,0,263.91,4a3.76,3.76,0,0,0-1.16-.56,4.79,4.79,0,0,0-1.34-.19,4.13,4.13,0,0,0-2,.48A4,4,0,0,0,258,5a5.72,5.72,0,0,0-.79,1.81,8.39,8.39,0,0,0,0,4.13,5.71,5.71,0,0,0,.79,1.81A4,4,0,0,0,259.38,14a4.13,4.13,0,0,0,2,.48,4.8,4.8,0,0,0,1.75-.26,3.48,3.48,0,0,0,1.29-.81,3.39,3.39,0,0,0,.79-1.29,5.48,5.48,0,0,0,.29-1.69h-3.92v-2h6.28Z"/><path class="cls-2" d="M276.44,1.49h6.5a6.19,6.19,0,0,1,2.56.45A4,4,0,0,1,287,3.08a3.85,3.85,0,0,1,.73,1.49A6.31,6.31,0,0,1,288,6a6.18,6.18,0,0,1-.2,1.48A3.86,3.86,0,0,1,287,9a4,4,0,0,1-1.53,1.13,6.31,6.31,0,0,1-2.56.44H279v5.66h-2.58Zm2.58,7h3.78a3.37,3.37,0,0,0,.89-.12,2.55,2.55,0,0,0,.84-.4,2.07,2.07,0,0,0,.62-.74A2.55,2.55,0,0,0,285.38,6a3,3,0,0,0-.21-1.2,1.92,1.92,0,0,0-.56-.75,2,2,0,0,0-.81-.38,4.39,4.39,0,0,0-1-.1H279Z"/><path class="cls-2" d="M290.15,1.49h2.58V7.35h6.71V1.49H302V16.23h-2.58V9.58h-6.71v6.65h-2.58Z"/><path class="cls-2" d="M311.4,1.14a6.85,6.85,0,0,1,3,.62,6.63,6.63,0,0,1,2.22,1.67A7.43,7.43,0,0,1,318,5.88a9,9,0,0,1,.49,3,9.1,9.1,0,0,1-.49,3,7.44,7.44,0,0,1-1.39,2.46A6.52,6.52,0,0,1,314.36,16a7.51,7.51,0,0,1-5.92,0,6.52,6.52,0,0,1-2.22-1.66,7.44,7.44,0,0,1-1.39-2.46,9.1,9.1,0,0,1-.49-3,9,9,0,0,1,.49-3,7.43,7.43,0,0,1,1.39-2.46,6.63,6.63,0,0,1,2.22-1.67A6.85,6.85,0,0,1,311.4,1.14Zm0,2.11a4.13,4.13,0,0,0-2,.48A4,4,0,0,0,308,5a5.74,5.74,0,0,0-.79,1.81,8.39,8.39,0,0,0,0,4.13,5.73,5.73,0,0,0,.79,1.81A4,4,0,0,0,309.36,14a4.59,4.59,0,0,0,4.07,0,4,4,0,0,0,1.39-1.27,5.73,5.73,0,0,0,.79-1.81,8.39,8.39,0,0,0,0-4.13A5.74,5.74,0,0,0,314.82,5a4,4,0,0,0-1.39-1.27A4.13,4.13,0,0,0,311.4,3.24Z"/><path class="cls-2" d="M319.41,1.49h11.93V3.72h-4.69V16.23h-2.58V3.72h-4.67Z"/><path class="cls-2" d="M339.33,1.14a6.85,6.85,0,0,1,3,.62,6.63,6.63,0,0,1,2.22,1.67,7.43,7.43,0,0,1,1.39,2.46,9,9,0,0,1,.49,3,9.1,9.1,0,0,1-.49,3,7.44,7.44,0,0,1-1.39,2.46A6.52,6.52,0,0,1,342.29,16a7.51,7.51,0,0,1-5.92,0,6.52,6.52,0,0,1-2.22-1.66,7.44,7.44,0,0,1-1.39-2.46,9.1,9.1,0,0,1-.49-3,9,9,0,0,1,.49-3,7.43,7.43,0,0,1,1.39-2.46,6.63,6.63,0,0,1,2.22-1.67A6.85,6.85,0,0,1,339.33,1.14Zm0,2.11a4.13,4.13,0,0,0-2,.48A4,4,0,0,0,335.9,5a5.74,5.74,0,0,0-.79,1.81,8.39,8.39,0,0,0,0,4.13,5.73,5.73,0,0,0,.79,1.81A4,4,0,0,0,337.29,14a4.59,4.59,0,0,0,4.07,0,4,4,0,0,0,1.39-1.27,5.73,5.73,0,0,0,.79-1.81,8.39,8.39,0,0,0,0-4.13A5.74,5.74,0,0,0,342.76,5a4,4,0,0,0-1.39-1.27A4.13,4.13,0,0,0,339.33,3.24Z"/><path class="cls-2" d="M361.61,16.23H360l-.39-1.73a6.14,6.14,0,0,1-2.06,1.63,5.86,5.86,0,0,1-2.37.45,6.94,6.94,0,0,1-3-.61,6.51,6.51,0,0,1-2.22-1.66,7.44,7.44,0,0,1-1.39-2.46,9.1,9.1,0,0,1-.49-3,9,9,0,0,1,.49-3,7.43,7.43,0,0,1,1.39-2.46,6.62,6.62,0,0,1,2.22-1.67,6.85,6.85,0,0,1,3-.62,8,8,0,0,1,2.28.32,6.1,6.1,0,0,1,1.93.95A5.27,5.27,0,0,1,360.74,4a5.56,5.56,0,0,1,.7,2.19h-2.52A3.16,3.16,0,0,0,357.62,4a3.76,3.76,0,0,0-1.16-.56,4.79,4.79,0,0,0-1.34-.19,4.13,4.13,0,0,0-2,.48A4,4,0,0,0,351.7,5a5.72,5.72,0,0,0-.79,1.81,8.39,8.39,0,0,0,0,4.13,5.71,5.71,0,0,0,.79,1.81A4,4,0,0,0,353.09,14a4.13,4.13,0,0,0,2,.48,4.8,4.8,0,0,0,1.75-.26,3.48,3.48,0,0,0,1.29-.81,3.39,3.39,0,0,0,.79-1.29,5.48,5.48,0,0,0,.29-1.69h-3.92v-2h6.28Z"/><path class="cls-2" d="M364.41,1.49h7a5.46,5.46,0,0,1,3.65,1.05,3.67,3.67,0,0,1,1.22,2.93A4.27,4.27,0,0,1,376,7.22a3.79,3.79,0,0,1-.72,1.11,2.81,2.81,0,0,1-.82.61q-.4.19-.59.25v0a2.66,2.66,0,0,1,.71.21,2.1,2.1,0,0,1,.71.53,2.87,2.87,0,0,1,.55.94,4.15,4.15,0,0,1,.22,1.45,13.07,13.07,0,0,0,.2,2.36,3.11,3.11,0,0,0,.61,1.52h-2.77a2.41,2.41,0,0,1-.34-1.05q-.05-.58-.05-1.12a10.7,10.7,0,0,0-.12-1.74,3,3,0,0,0-.46-1.22,1.92,1.92,0,0,0-.9-.71,4,4,0,0,0-1.46-.23H367v6.07h-2.58ZM367,8.2h4.23a2.69,2.69,0,0,0,1.88-.59,2.28,2.28,0,0,0,.64-1.77,2.73,2.73,0,0,0-.21-1.15A1.67,1.67,0,0,0,373,4a2.09,2.09,0,0,0-.83-.33,5.51,5.51,0,0,0-1-.08H367Z"/><path class="cls-2" d="M382.89,1.49h2.75l5.68,14.74h-2.77l-1.38-3.9h-5.88l-1.38,3.9h-2.66ZM382,10.36h4.5L384.27,4h-.06Z"/><path class="cls-2" d="M392.72,1.49h6.5a6.19,6.19,0,0,1,2.56.45,4,4,0,0,1,1.53,1.14A3.85,3.85,0,0,1,404,4.56a6.31,6.31,0,0,1,.2,1.49,6.18,6.18,0,0,1-.2,1.48A3.86,3.86,0,0,1,403.31,9a4,4,0,0,1-1.53,1.13,6.31,6.31,0,0,1-2.56.44H395.3v5.66h-2.58Zm2.58,7h3.78a3.37,3.37,0,0,0,.89-.12,2.55,2.55,0,0,0,.84-.4,2.07,2.07,0,0,0,.62-.74A2.55,2.55,0,0,0,401.66,6a3,3,0,0,0-.21-1.2,1.92,1.92,0,0,0-.56-.75,2,2,0,0,0-.81-.38,4.39,4.39,0,0,0-1-.1H395.3Z"/><path class="cls-2" d="M406.43,1.49H409V7.35h6.71V1.49h2.58V16.23h-2.58V9.58H409v6.65h-2.58Z"/><path class="cls-2" d="M425.23,10.45l-5.53-9h3l3.9,6.61,3.84-6.61h2.89l-5.51,9v5.78h-2.58Z"/></g></g></svg>