<svg xmlns="http://www.w3.org/2000/svg" viewBox="0 0 399.88 20.65"><defs><style>.cls-1{fill:#d3d3d3;}.cls-2{fill:#5ac7da;}</style></defs><title>oleg-chursin-wedding-photography-logo-hr-thin</title><g id="Layer_2" data-name="Layer 2"><g id="Layer_1-2" data-name="Layer 1"><path class="cls-1" d="M14,8.86a9.45,9.45,0,0,1-.48,3,7.25,7.25,0,0,1-1.37,2.46A6.38,6.38,0,0,1,10,16a7,7,0,0,1-3,.6,7.06,7.06,0,0,1-3-.6,6.36,6.36,0,0,1-2.21-1.64A7.25,7.25,0,0,1,.47,11.88a9.43,9.43,0,0,1-.47-3,9.43,9.43,0,0,1,.47-3A7.26,7.26,0,0,1,1.85,3.38,6.36,6.36,0,0,1,4.06,1.73a7,7,0,0,1,3-.6,7,7,0,0,1,3,.6,6.39,6.39,0,0,1,2.2,1.64,7.26,7.26,0,0,1,1.37,2.46A9.44,9.44,0,0,1,14,8.86ZM.91,8.86a8.56,8.56,0,0,0,.41,2.68,6.58,6.58,0,0,0,1.2,2.2A5.7,5.7,0,0,0,7,15.79a5.71,5.71,0,0,0,2.57-.56,5.82,5.82,0,0,0,1.91-1.5,6.6,6.6,0,0,0,1.2-2.2,8.57,8.57,0,0,0,.41-2.68,8.57,8.57,0,0,0-.41-2.68A6.61,6.61,0,0,0,11.5,4a5.83,5.83,0,0,0-1.91-1.5A5.72,5.72,0,0,0,7,1.92,5.7,5.7,0,0,0,2.52,4a6.59,6.59,0,0,0-1.2,2.2A8.56,8.56,0,0,0,.91,8.86Z"/><path class="cls-1" d="M16,1.49h.91v14h8.36v.78H16Z"/><path class="cls-1" d="M26.28,1.49h9.91v.78h-9v5.9h8.46V9H27.19v6.48h9.1v.78h-10Z"/><path class="cls-1" d="M37.31,8.94a9.51,9.51,0,0,1,.46-3,7.57,7.57,0,0,1,1.35-2.49,6.48,6.48,0,0,1,2.18-1.7,6.68,6.68,0,0,1,3-.63,7.07,7.07,0,0,1,2.17.33A5.77,5.77,0,0,1,49.65,4,5.6,5.6,0,0,1,50.4,6h-.87a5.66,5.66,0,0,0-1.86-3,5.18,5.18,0,0,0-3.39-1.09,5.7,5.7,0,0,0-2.62.58A5.65,5.65,0,0,0,39.76,4a6.85,6.85,0,0,0-1.16,2.24,8.93,8.93,0,0,0-.39,2.65,9,9,0,0,0,.38,2.65,6.36,6.36,0,0,0,1.14,2.18,5.42,5.42,0,0,0,1.89,1.48,6.07,6.07,0,0,0,2.66.55,6.18,6.18,0,0,0,2.37-.43,5,5,0,0,0,1.79-1.22,5.11,5.11,0,0,0,1.1-1.89,6.73,6.73,0,0,0,.31-2.47H44.43V9h6.21v7.23h-.78V13.09h0A4.52,4.52,0,0,1,49,14.54a5,5,0,0,1-1.27,1.09,6.43,6.43,0,0,1-1.63.69A7.44,7.44,0,0,1,41.28,16a6.36,6.36,0,0,1-2.18-1.63,7,7,0,0,1-1.34-2.43A9.56,9.56,0,0,1,37.31,8.94Z"/><path class="cls-1" d="M58.32,8.86a9.43,9.43,0,0,1,.48-3,7.26,7.26,0,0,1,1.37-2.46,6.37,6.37,0,0,1,2.21-1.64,7,7,0,0,1,3-.6,6.68,6.68,0,0,1,2.25.34,5.75,5.75,0,0,1,1.6.85,5,5,0,0,1,1.06,1.1,6.11,6.11,0,0,1,.63,1.13,5.53,5.53,0,0,1,.3.91c.06.25.08.4.08.42h-.91a4.42,4.42,0,0,0-.6-1.66A4.59,4.59,0,0,0,68.63,3a5,5,0,0,0-1.52-.78A5.81,5.81,0,0,0,60.84,4a6.59,6.59,0,0,0-1.2,2.2,8.56,8.56,0,0,0-.41,2.68,8.56,8.56,0,0,0,.41,2.68,6.58,6.58,0,0,0,1.2,2.2,5.7,5.7,0,0,0,4.5,2.05,4.65,4.65,0,0,0,2-.44A5.51,5.51,0,0,0,69,14.17a5.82,5.82,0,0,0,1.13-1.69,5.76,5.76,0,0,0,.48-2h.91a7.24,7.24,0,0,1-.65,2.44,6.81,6.81,0,0,1-1.34,1.93,5.86,5.86,0,0,1-4.18,1.72,7.05,7.05,0,0,1-3-.6,6.36,6.36,0,0,1-2.21-1.64,7.25,7.25,0,0,1-1.37-2.46A9.43,9.43,0,0,1,58.32,8.86Z"/><path class="cls-1" d="M73.42,1.49h.91V8.18h9.41V1.49h.91V16.23h-.91V9H74.32v7.27h-.91Z"/><path class="cls-1" d="M88.16,1.49v8.84q0,.43,0,1a6.31,6.31,0,0,0,.67,2.38,3.61,3.61,0,0,0,.82,1.05,3.88,3.88,0,0,0,1.27.74,5.28,5.28,0,0,0,1.83.28,6,6,0,0,0,2.28-.38,3.65,3.65,0,0,0,1.49-1.09,4.4,4.4,0,0,0,.82-1.72,9.54,9.54,0,0,0,.25-2.27V1.49h.91v8.84a10.28,10.28,0,0,1-.28,2.46,5.18,5.18,0,0,1-.94,2,4.46,4.46,0,0,1-1.77,1.33,6.87,6.87,0,0,1-2.76.49,6.68,6.68,0,0,1-2.23-.33A4.76,4.76,0,0,1,89,15.39a4,4,0,0,1-1-1.21,6.92,6.92,0,0,1-.76-2.71q0-.65,0-1.15V1.49Z"/><path class="cls-1" d="M101.12,1.49h6.15a8,8,0,0,1,1.82.2,4.28,4.28,0,0,1,1.49.64,3.06,3.06,0,0,1,1,1.17,4,4,0,0,1,.36,1.8,3.83,3.83,0,0,1-.84,2.51,3.65,3.65,0,0,1-2.32,1.27v0a3.51,3.51,0,0,1,1.6.54,2.63,2.63,0,0,1,.88,1,4.09,4.09,0,0,1,.37,1.32,12.81,12.81,0,0,1,.08,1.45v.85a6.77,6.77,0,0,0,0,.77,3.84,3.84,0,0,0,.13.67,1.51,1.51,0,0,0,.26.52h-1a2.68,2.68,0,0,1-.32-1.21q0-.69,0-1.43t-.06-1.48a3.14,3.14,0,0,0-.39-1.31,2.35,2.35,0,0,0-1-.93,4.66,4.66,0,0,0-2-.35H102v6.71h-.91Zm6.15,7.25a5.46,5.46,0,0,0,1.5-.2A3.18,3.18,0,0,0,110,7.93a2.9,2.9,0,0,0,.78-1.05A3.69,3.69,0,0,0,111,5.35a3,3,0,0,0-.31-1.41,2.73,2.73,0,0,0-.83-1,3.39,3.39,0,0,0-1.2-.54,6,6,0,0,0-1.42-.17H102V8.73Z"/><path class="cls-1" d="M123.75,5.7a4,4,0,0,0-.4-1.65,3.47,3.47,0,0,0-1-1.18,4.28,4.28,0,0,0-1.48-.71A7,7,0,0,0,119,1.92a6.73,6.73,0,0,0-1.33.14,4.23,4.23,0,0,0-1.32.51,3,3,0,0,0-1,1A2.75,2.75,0,0,0,115,5.06a2.29,2.29,0,0,0,.43,1.45,3.15,3.15,0,0,0,1.14.9,7.48,7.48,0,0,0,1.61.55l1.84.39q.95.19,1.85.44a6.34,6.34,0,0,1,1.61.7,3.47,3.47,0,0,1,1.15,1.16,3.38,3.38,0,0,1,.43,1.79,3.56,3.56,0,0,1-.5,1.94,4.18,4.18,0,0,1-1.25,1.28,5.18,5.18,0,0,1-1.67.71,7.68,7.68,0,0,1-1.77.22,10.18,10.18,0,0,1-2.44-.28,5.46,5.46,0,0,1-2-.91,4.38,4.38,0,0,1-1.33-1.62,5.28,5.28,0,0,1-.46-2.42h.91a4.13,4.13,0,0,0,.35,2.05A3.7,3.7,0,0,0,116,14.78a4.74,4.74,0,0,0,1.72.77,8.93,8.93,0,0,0,2.08.24,6.61,6.61,0,0,0,1.41-.17,4.35,4.35,0,0,0,1.38-.56,3.42,3.42,0,0,0,1.05-1,2.86,2.86,0,0,0,.42-1.61,2.49,2.49,0,0,0-.43-1.52,3.19,3.19,0,0,0-1.15-.95,7.39,7.39,0,0,0-1.61-.58q-.9-.22-1.85-.4t-1.84-.43a6.32,6.32,0,0,1-1.61-.67,3.46,3.46,0,0,1-1.14-1.09,3.12,3.12,0,0,1-.43-1.72,3.5,3.5,0,0,1,.44-1.81A3.63,3.63,0,0,1,115.67,2a5.13,5.13,0,0,1,1.6-.68A7.37,7.37,0,0,1,119,1.14a8.63,8.63,0,0,1,2.16.26,5.14,5.14,0,0,1,1.75.81,4,4,0,0,1,1.21,1.41,5,5,0,0,1,.52,2.09Z"/><path class="cls-1" d="M127.14,1.49H128V16.23h-.91Z"/><path class="cls-1" d="M130.65,1.49h1.14L141.09,15h0V1.49H142V16.23H141L131.6,2.6h0V16.23h-.91Z"/><path class="cls-1" d="M151,0h.78V20.65H151Z"/><path class="cls-2" d="M159.28,1.49h.93l3.84,13.77h0L168,1.49h1.14l4,13.77h0l3.78-13.77h1l-4.23,14.74h-1l-4-14h0l-4,14h-1Z"/><path class="cls-2" d="M179.06,1.49H189v.78h-9v5.9h8.46V9H180v6.48h9.1v.78h-10Z"/><path class="cls-2" d="M190.62,1.49h4.83a7.7,7.7,0,0,1,3.29.62,5.55,5.55,0,0,1,2.1,1.65,6.31,6.31,0,0,1,1.1,2.35,11.56,11.56,0,0,1,.32,2.73,10.19,10.19,0,0,1-.4,2.92,6.35,6.35,0,0,1-1.25,2.34,5.87,5.87,0,0,1-2.14,1.56,7.57,7.57,0,0,1-3.07.57h-4.79Zm4.87,14a7,7,0,0,0,2.08-.32A5,5,0,0,0,199.46,14a5.44,5.44,0,0,0,1.37-2,8.37,8.37,0,0,0,.53-3.19,9.72,9.72,0,0,0-.3-2.58,6.38,6.38,0,0,0-.79-1.81,4.08,4.08,0,0,0-1.11-1.16,5.51,5.51,0,0,0-1.3-.65,6.29,6.29,0,0,0-1.34-.3,11.47,11.47,0,0,0-1.21-.07h-3.78V15.44Z"/><path class="cls-2" d="M204.39,1.49h4.83a7.7,7.7,0,0,1,3.29.62,5.55,5.55,0,0,1,2.1,1.65,6.31,6.31,0,0,1,1.1,2.35A11.56,11.56,0,0,1,216,8.84a10.19,10.19,0,0,1-.4,2.92,6.35,6.35,0,0,1-1.25,2.34,5.87,5.87,0,0,1-2.14,1.56,7.56,7.56,0,0,1-3.07.57h-4.79Zm4.87,14a7,7,0,0,0,2.08-.32A5,5,0,0,0,213.23,14a5.44,5.44,0,0,0,1.37-2,8.37,8.37,0,0,0,.53-3.19,9.72,9.72,0,0,0-.3-2.58A6.38,6.38,0,0,0,214,4.45a4.08,4.08,0,0,0-1.11-1.16,5.51,5.51,0,0,0-1.3-.65,6.28,6.28,0,0,0-1.34-.3,11.48,11.48,0,0,0-1.21-.07H205.3V15.44Z"/><path class="cls-2" d="M218.16,1.49h.91V16.23h-.91Z"/><path class="cls-2" d="M221.67,1.49h1.14L232.12,15h0V1.49h.91V16.23H232L222.62,2.6h0V16.23h-.91Z"/><path class="cls-2" d="M235.13,8.94a9.51,9.51,0,0,1,.46-3A7.55,7.55,0,0,1,237,3.47a6.46,6.46,0,0,1,2.18-1.7,6.68,6.68,0,0,1,3-.63,7.07,7.07,0,0,1,2.17.33A5.78,5.78,0,0,1,247.48,4,5.62,5.62,0,0,1,248.22,6h-.87a5.66,5.66,0,0,0-1.86-3,5.18,5.18,0,0,0-3.39-1.09,5.7,5.7,0,0,0-2.62.58A5.65,5.65,0,0,0,237.59,4a6.85,6.85,0,0,0-1.16,2.24,9.27,9.27,0,0,0,0,5.31,6.37,6.37,0,0,0,1.13,2.18,5.42,5.42,0,0,0,1.89,1.48,6.07,6.07,0,0,0,2.66.55,6.18,6.18,0,0,0,2.37-.43,5,5,0,0,0,1.79-1.22,5.12,5.12,0,0,0,1.1-1.89,6.73,6.73,0,0,0,.31-2.47h-5.43V9h6.21v7.23h-.78V13.09h0a4.49,4.49,0,0,1-.81,1.46,5,5,0,0,1-1.27,1.09,6.42,6.42,0,0,1-1.63.69,7.44,7.44,0,0,1-4.83-.35,6.35,6.35,0,0,1-2.18-1.63,7,7,0,0,1-1.34-2.43A9.57,9.57,0,0,1,235.13,8.94Z"/><path class="cls-2" d="M256.71,1.49H263a7.36,7.36,0,0,1,1.37.14,3.71,3.71,0,0,1,1.4.59,3.44,3.44,0,0,1,1.08,1.26,4.55,4.55,0,0,1,.43,2.14,3.78,3.78,0,0,1-1.2,3,5,5,0,0,1-3.43,1.05h-5v6.57h-.91Zm.91,7.39h5.18a4.23,4.23,0,0,0,1.68-.3,3,3,0,0,0,1.1-.77,3,3,0,0,0,.6-1.05,3.75,3.75,0,0,0,.19-1.16,4.68,4.68,0,0,0-.12-1,3,3,0,0,0-.5-1.09,3,3,0,0,0-1-.89,3.77,3.77,0,0,0-1.79-.36h-5.31Z"/><path class="cls-2" d="M268.91,1.49h.91V8.18h9.42V1.49h.91V16.23h-.91V9h-9.42v7.27h-.91Z"/><path class="cls-2" d="M296.1,8.86a9.45,9.45,0,0,1-.47,3,7.25,7.25,0,0,1-1.37,2.46,6.38,6.38,0,0,1-2.2,1.64,7.61,7.61,0,0,1-5.92,0,6.35,6.35,0,0,1-2.21-1.64,7.24,7.24,0,0,1-1.37-2.46,9.42,9.42,0,0,1-.48-3,9.42,9.42,0,0,1,.48-3,7.24,7.24,0,0,1,1.37-2.46,6.35,6.35,0,0,1,2.21-1.64,7.6,7.6,0,0,1,5.92,0,6.39,6.39,0,0,1,2.2,1.64,7.26,7.26,0,0,1,1.37,2.46A9.44,9.44,0,0,1,296.1,8.86ZM283,8.86a8.56,8.56,0,0,0,.41,2.68,6.59,6.59,0,0,0,1.2,2.2,5.69,5.69,0,0,0,4.5,2.05,5.71,5.71,0,0,0,2.57-.56,5.83,5.83,0,0,0,1.91-1.5,6.58,6.58,0,0,0,1.2-2.2,8.56,8.56,0,0,0,.41-2.68,8.56,8.56,0,0,0-.41-2.68,6.59,6.59,0,0,0-1.2-2.2,5.83,5.83,0,0,0-1.91-1.5,5.72,5.72,0,0,0-2.57-.56A5.69,5.69,0,0,0,284.6,4a6.6,6.6,0,0,0-1.2,2.2A8.56,8.56,0,0,0,283,8.86Z"/><path class="cls-2" d="M295.58,2.27V1.49h11.29v.78h-5.2v14h-.91v-14Z"/><path class="cls-2" d="M320.38,8.86a9.45,9.45,0,0,1-.47,3,7.25,7.25,0,0,1-1.37,2.46,6.38,6.38,0,0,1-2.2,1.64,7.61,7.61,0,0,1-5.92,0,6.35,6.35,0,0,1-2.21-1.64,7.24,7.24,0,0,1-1.37-2.46,9.42,9.42,0,0,1-.48-3,9.42,9.42,0,0,1,.48-3,7.24,7.24,0,0,1,1.37-2.46,6.35,6.35,0,0,1,2.21-1.64,7.6,7.6,0,0,1,5.92,0,6.39,6.39,0,0,1,2.2,1.64,7.26,7.26,0,0,1,1.37,2.46A9.44,9.44,0,0,1,320.38,8.86Zm-13.11,0a8.56,8.56,0,0,0,.41,2.68,6.59,6.59,0,0,0,1.2,2.2,5.69,5.69,0,0,0,4.5,2.05,5.71,5.71,0,0,0,2.57-.56,5.83,5.83,0,0,0,1.91-1.5,6.58,6.58,0,0,0,1.2-2.2,8.56,8.56,0,0,0,.41-2.68,8.56,8.56,0,0,0-.41-2.68,6.59,6.59,0,0,0-1.2-2.2A5.83,5.83,0,0,0,316,2.48a5.72,5.72,0,0,0-2.57-.56A5.69,5.69,0,0,0,308.88,4a6.6,6.6,0,0,0-1.2,2.2A8.56,8.56,0,0,0,307.27,8.86Z"/><path class="cls-2" d="M321.78,8.94a9.51,9.51,0,0,1,.46-3,7.55,7.55,0,0,1,1.35-2.49,6.46,6.46,0,0,1,2.18-1.7,6.68,6.68,0,0,1,3-.63,7.07,7.07,0,0,1,2.17.33A5.78,5.78,0,0,1,334.13,4,5.62,5.62,0,0,1,334.87,6H334a5.66,5.66,0,0,0-1.86-3,5.18,5.18,0,0,0-3.39-1.09,5.7,5.7,0,0,0-2.62.58A5.65,5.65,0,0,0,324.24,4a6.85,6.85,0,0,0-1.16,2.24,9.27,9.27,0,0,0,0,5.31,6.37,6.37,0,0,0,1.13,2.18,5.42,5.42,0,0,0,1.89,1.48,6.07,6.07,0,0,0,2.66.55,6.18,6.18,0,0,0,2.37-.43,5,5,0,0,0,1.79-1.22,5.12,5.12,0,0,0,1.1-1.89,6.73,6.73,0,0,0,.31-2.47h-5.43V9h6.21v7.23h-.78V13.09h0a4.49,4.49,0,0,1-.81,1.46,5,5,0,0,1-1.27,1.09,6.42,6.42,0,0,1-1.63.69,7.44,7.44,0,0,1-4.83-.35,6.35,6.35,0,0,1-2.18-1.63,7,7,0,0,1-1.34-2.43A9.57,9.57,0,0,1,321.78,8.94Z"/><path class="cls-2" d="M337.62,1.49h6.15a8,8,0,0,1,1.82.2,4.28,4.28,0,0,1,1.49.64,3.06,3.06,0,0,1,1,1.17,4,4,0,0,1,.36,1.8,3.83,3.83,0,0,1-.84,2.51,3.65,3.65,0,0,1-2.32,1.27v0a3.51,3.51,0,0,1,1.6.54,2.62,2.62,0,0,1,.88,1,4.11,4.11,0,0,1,.37,1.32,12.8,12.8,0,0,1,.08,1.45v.85a6.65,6.65,0,0,0,0,.77,3.88,3.88,0,0,0,.13.67,1.5,1.5,0,0,0,.26.52h-1a2.68,2.68,0,0,1-.32-1.21q0-.69,0-1.43t-.06-1.48a3.16,3.16,0,0,0-.39-1.31,2.35,2.35,0,0,0-1-.93,4.65,4.65,0,0,0-2-.35h-5.24v6.71h-.91Zm6.15,7.25a5.47,5.47,0,0,0,1.5-.2,3.17,3.17,0,0,0,1.19-.61,2.89,2.89,0,0,0,.79-1.05,3.69,3.69,0,0,0,.29-1.53,3,3,0,0,0-.31-1.41,2.73,2.73,0,0,0-.83-1,3.4,3.4,0,0,0-1.2-.54,6,6,0,0,0-1.42-.17h-5.24V8.73Z"/><path class="cls-2" d="M355,1.49h1l5.82,14.74h-1L359,11.5h-7.06L350,16.23h-1Zm3.7,9.23-3.16-8.34h0l-3.28,8.34Z"/><path class="cls-2" d="M362.87,1.49h6.28a7.36,7.36,0,0,1,1.37.14,3.71,3.71,0,0,1,1.4.59A3.44,3.44,0,0,1,373,3.48a4.55,4.55,0,0,1,.43,2.14,3.78,3.78,0,0,1-1.2,3,5,5,0,0,1-3.43,1.05h-5v6.57h-.91Zm.91,7.39H369a4.23,4.23,0,0,0,1.68-.3,3,3,0,0,0,1.1-.77,3,3,0,0,0,.6-1.05,3.75,3.75,0,0,0,.19-1.16,4.68,4.68,0,0,0-.12-1,3,3,0,0,0-.5-1.09,3,3,0,0,0-1-.89,3.77,3.77,0,0,0-1.79-.36h-5.31Z"/><path class="cls-2" d="M375.07,1.49H376V8.18h9.42V1.49h.91V16.23h-.91V9H376v7.27h-.91Z"/><path class="cls-2" d="M398.87,1.49h1L394,10.05v6.17h-.91V10.05l-5.88-8.57h1l5.33,7.8Z"/></g></g></svg>