<svg xmlns="http://www.w3.org/2000/svg" viewBox="0 0 153.24 27.16"><defs><style>.cls-1{fill:#d3d3d3;}.cls-2{fill:#5ac7da;}</style></defs><title>oleg-chursin-wedding-photography-logo</title><g id="Layer_2" data-name="Layer 2"><g id="Layer_1-2" data-name="Layer 1"><path class="cls-1" d="M7.06,0a6.85,6.85,0,0,1,3,.62,6.63,6.63,0,0,1,2.22,1.67,7.43,7.43,0,0,1,1.39,2.46,9,9,0,0,1,.49,3,9.1,9.1,0,0,1-.49,3,7.44,7.44,0,0,1-1.39,2.46A6.51,6.51,0,0,1,10,14.83a7,7,0,0,1-3,.61,7,7,0,0,1-3-.61,6.53,6.53,0,0,1-2.22-1.66A7.44,7.44,0,0,1,.48,10.72a9.1,9.1,0,0,1-.48-3,9,9,0,0,1,.48-3A7.43,7.43,0,0,1,1.88,2.29,6.64,6.64,0,0,1,4.1.62,6.85,6.85,0,0,1,7.06,0Zm0,2.11a4.13,4.13,0,0,0-2,.48A4,4,0,0,0,3.63,3.85a5.74,5.74,0,0,0-.79,1.81,8.36,8.36,0,0,0,0,4.13,5.73,5.73,0,0,0,.79,1.81A4,4,0,0,0,5,12.86a4.13,4.13,0,0,0,2,.48,4.13,4.13,0,0,0,2-.48,4,4,0,0,0,1.39-1.27,5.71,5.71,0,0,0,.79-1.81,8.36,8.36,0,0,0,0-4.13,5.72,5.72,0,0,0-.79-1.81A4,4,0,0,0,9.09,2.58,4.13,4.13,0,0,0,7.06,2.11Z"/><path class="cls-1" d="M16.47.35h2.58V12.86h7.49v2.23H16.47Z"/><path class="cls-1" d="M28.33.35H38.94V2.58h-8V6.44h7.43V8.55H30.91v4.31h8.18v2.23H28.33Z"/><path class="cls-1" d="M54.19,15.09H52.54l-.39-1.73A6.14,6.14,0,0,1,50.09,15a5.85,5.85,0,0,1-2.37.45,7,7,0,0,1-3-.61,6.52,6.52,0,0,1-2.22-1.66,7.44,7.44,0,0,1-1.39-2.46,9.1,9.1,0,0,1-.49-3,9,9,0,0,1,.49-3,7.43,7.43,0,0,1,1.39-2.46A6.63,6.63,0,0,1,44.75.62a6.85,6.85,0,0,1,3-.62A8,8,0,0,1,50,.32a6.09,6.09,0,0,1,1.93.95,5.26,5.26,0,0,1,1.4,1.58A5.54,5.54,0,0,1,54,5H51.51a3.17,3.17,0,0,0-1.3-2.19,3.77,3.77,0,0,0-1.16-.56,4.78,4.78,0,0,0-1.34-.19,4.13,4.13,0,0,0-2,.48,4,4,0,0,0-1.39,1.27,5.74,5.74,0,0,0-.79,1.81,8.39,8.39,0,0,0,0,4.13,5.73,5.73,0,0,0,.79,1.81,4,4,0,0,0,1.39,1.27,4.13,4.13,0,0,0,2,.48,4.81,4.81,0,0,0,1.75-.26,3.48,3.48,0,0,0,1.29-.81A3.38,3.38,0,0,0,51.55,11a5.45,5.45,0,0,0,.29-1.69H47.92v-2h6.28Z"/><path class="cls-1" d="M72.69,5a5.27,5.27,0,0,0-.45-1.18,3.23,3.23,0,0,0-1.81-1.54A4.21,4.21,0,0,0,69,2.11a4.13,4.13,0,0,0-2,.48,4,4,0,0,0-1.39,1.27,5.74,5.74,0,0,0-.79,1.81,8.36,8.36,0,0,0,0,4.13,5.73,5.73,0,0,0,.79,1.81A4,4,0,0,0,67,12.86a4.13,4.13,0,0,0,2,.48,3.66,3.66,0,0,0,1.53-.3,3.4,3.4,0,0,0,1.14-.83A3.89,3.89,0,0,0,72.42,11a5.92,5.92,0,0,0,.35-1.51h2.52a7.05,7.05,0,0,1-.57,2.42,5.93,5.93,0,0,1-1.31,1.89A5.79,5.79,0,0,1,71.47,15a6.73,6.73,0,0,1-2.46.43,7,7,0,0,1-3-.61,6.53,6.53,0,0,1-2.22-1.66,7.44,7.44,0,0,1-1.39-2.46,9.1,9.1,0,0,1-.48-3,9,9,0,0,1,.48-3,7.43,7.43,0,0,1,1.39-2.46A6.64,6.64,0,0,1,66.05.62,6.85,6.85,0,0,1,69,0a7.81,7.81,0,0,1,2.33.34,6,6,0,0,1,1.93,1,5.15,5.15,0,0,1,1.35,1.58A5.5,5.5,0,0,1,75.27,5Z"/><path class="cls-1" d="M77.58.35h2.58V6.21h6.71V.35h2.58V15.09H86.88V8.44H80.17v6.65H77.58Z"/><path class="cls-1" d="M92.39.35H95V8.94q0,.74.07,1.51a3.44,3.44,0,0,0,.41,1.37,2.63,2.63,0,0,0,1,1,5.05,5.05,0,0,0,3.9,0,2.63,2.63,0,0,0,1-1,3.46,3.46,0,0,0,.41-1.37q.07-.76.07-1.51V.35h2.58V9.79a6.48,6.48,0,0,1-.43,2.48A4.77,4.77,0,0,1,102.83,14a5.13,5.13,0,0,1-1.91,1.06,8.92,8.92,0,0,1-5,0A5.13,5.13,0,0,1,94,14a4.77,4.77,0,0,1-1.23-1.77,6.48,6.48,0,0,1-.43-2.48Z"/><path class="cls-1" d="M107.46.35h7a5.46,5.46,0,0,1,3.65,1.05,3.67,3.67,0,0,1,1.22,2.93,4.27,4.27,0,0,1-.31,1.74,3.79,3.79,0,0,1-.72,1.11,2.81,2.81,0,0,1-.82.61q-.4.19-.59.25v0a2.66,2.66,0,0,1,.71.21,2.1,2.1,0,0,1,.71.53,2.87,2.87,0,0,1,.55.94,4.15,4.15,0,0,1,.22,1.45,13.07,13.07,0,0,0,.2,2.36,3.11,3.11,0,0,0,.61,1.52h-2.77a2.41,2.41,0,0,1-.34-1.05q-.05-.58-.05-1.12a10.7,10.7,0,0,0-.12-1.74,3,3,0,0,0-.46-1.22,1.92,1.92,0,0,0-.9-.71A4,4,0,0,0,113.84,9H110v6.07h-2.58ZM110,7.06h4.23a2.69,2.69,0,0,0,1.88-.59,2.28,2.28,0,0,0,.64-1.77,2.73,2.73,0,0,0-.21-1.15,1.67,1.67,0,0,0-.57-.69,2.09,2.09,0,0,0-.83-.33,5.51,5.51,0,0,0-1-.08H110Z"/><path class="cls-1" d="M123.69,10.18a3.31,3.31,0,0,0,.29,1.45,2.61,2.61,0,0,0,.81,1,3.43,3.43,0,0,0,1.19.56,5.75,5.75,0,0,0,1.46.18,4.66,4.66,0,0,0,1.45-.2,2.91,2.91,0,0,0,1-.51,1.83,1.83,0,0,0,.54-.71,2.13,2.13,0,0,0,.17-.82,1.76,1.76,0,0,0-.38-1.25,2.19,2.19,0,0,0-.84-.57,17.6,17.6,0,0,0-1.83-.55l-2.57-.67a5.5,5.5,0,0,1-1.58-.65,3.78,3.78,0,0,1-1-.9,3.16,3.16,0,0,1-.53-1.05,4.21,4.21,0,0,1-.16-1.14,3.84,3.84,0,0,1,.46-1.93,4.13,4.13,0,0,1,1.23-1.35,5.4,5.4,0,0,1,1.73-.79,7.61,7.61,0,0,1,2-.26,7.71,7.71,0,0,1,2.18.3,5.38,5.38,0,0,1,1.8.9,4.4,4.4,0,0,1,1.23,1.48,4.36,4.36,0,0,1,.45,2h-2.58a2.49,2.49,0,0,0-1-2,3.85,3.85,0,0,0-2.21-.59,4.83,4.83,0,0,0-.93.09,2.94,2.94,0,0,0-.87.31,1.9,1.9,0,0,0-.65.59,1.59,1.59,0,0,0-.26.93,1.58,1.58,0,0,0,.49,1.23,3.13,3.13,0,0,0,1.27.67l.65.18,1.27.34,1.37.36,1,.26a4.32,4.32,0,0,1,1.26.62,4,4,0,0,1,.9.9,3.73,3.73,0,0,1,.54,1.08,4,4,0,0,1,.18,1.16,4.17,4.17,0,0,1-.51,2.12,4.29,4.29,0,0,1-1.33,1.44,5.79,5.79,0,0,1-1.88.82,9,9,0,0,1-2.15.26,8.85,8.85,0,0,1-2.37-.31,5.56,5.56,0,0,1-1.94-.95,4.64,4.64,0,0,1-1.32-1.64,5.47,5.47,0,0,1-.52-2.36Z"/><path class="cls-1" d="M135.37.35H138V15.09h-2.58Z"/><path class="cls-1" d="M141,.35h2.73l6.73,10.86h0V.35H153V15.09h-2.73L143.53,4.25h-.06V15.09H141Z"/><path class="cls-2" d="M.55,18.38H2.08l1.55,6.55h0l1.73-6.55H6.92l1.68,6.55h0l1.6-6.55h1.52L9.38,27H7.85L6.13,20.4h0L4.36,27H2.81Z"/><path class="cls-2" d="M12.72,18.38h6.17v1.3H14.22v2.24h4.32v1.22H14.22v2.51H19V27H12.72Z"/><path class="cls-2" d="M20.28,18.38h3.55a4,4,0,0,1,1.7.34,3.17,3.17,0,0,1,1.18.92A3.93,3.93,0,0,1,27.39,21a6.37,6.37,0,0,1,0,3.34,3.92,3.92,0,0,1-.68,1.36,3.17,3.17,0,0,1-1.18.92,4,4,0,0,1-1.7.34H20.28Zm1.5,7.34h1.48a3.74,3.74,0,0,0,1.43-.23,2.1,2.1,0,0,0,.88-.65,2.35,2.35,0,0,0,.43-1,6.42,6.42,0,0,0,0-2.41,2.35,2.35,0,0,0-.43-1,2.1,2.1,0,0,0-.88-.65,3.74,3.74,0,0,0-1.43-.23H21.78Z"/><path class="cls-2" d="M28.95,18.38H32.5a4,4,0,0,1,1.7.34,3.17,3.17,0,0,1,1.18.92A3.93,3.93,0,0,1,36.06,21a6.37,6.37,0,0,1,0,3.34,3.92,3.92,0,0,1-.68,1.36,3.17,3.17,0,0,1-1.18.92,4,4,0,0,1-1.7.34H28.95Zm1.5,7.34h1.48a3.74,3.74,0,0,0,1.43-.23,2.1,2.1,0,0,0,.88-.65,2.35,2.35,0,0,0,.43-1,6.42,6.42,0,0,0,0-2.41,2.35,2.35,0,0,0-.43-1,2.1,2.1,0,0,0-.88-.65,3.74,3.74,0,0,0-1.43-.23H30.45Z"/><path class="cls-2" d="M37.61,18.38h1.5V27h-1.5Z"/><path class="cls-2" d="M40.89,18.38h1.58l3.91,6.31h0V18.38h1.43V27H46.25l-3.9-6.3h0V27H40.89Z"/><path class="cls-2" d="M57.09,27h-1l-.23-1a3.56,3.56,0,0,1-1.2.95,3.4,3.4,0,0,1-1.38.26,4,4,0,0,1-1.72-.35,3.78,3.78,0,0,1-1.29-1,4.32,4.32,0,0,1-.81-1.43,5.48,5.48,0,0,1,0-3.47,4.32,4.32,0,0,1,.81-1.43,3.85,3.85,0,0,1,1.29-1,4,4,0,0,1,1.72-.36,4.66,4.66,0,0,1,1.33.19,3.55,3.55,0,0,1,1.12.55,3.06,3.06,0,0,1,.82.92A3.22,3.22,0,0,1,57,21.11H55.53a1.84,1.84,0,0,0-.76-1.27,2.18,2.18,0,0,0-.67-.32,2.77,2.77,0,0,0-.78-.11,2.4,2.4,0,0,0-1.18.28,2.32,2.32,0,0,0-.81.74,3.33,3.33,0,0,0-.46,1.05,4.88,4.88,0,0,0,0,2.4,3.33,3.33,0,0,0,.46,1,2.32,2.32,0,0,0,.81.74,2.4,2.4,0,0,0,1.18.28,2.79,2.79,0,0,0,1-.15,2,2,0,0,0,.75-.47,2,2,0,0,0,.46-.75,3.18,3.18,0,0,0,.17-1H53.44V22.44h3.65Z"/><path class="cls-2" d="M62.05,18.38h3.78a3.6,3.6,0,0,1,1.49.26,2.35,2.35,0,0,1,.89.66,2.25,2.25,0,0,1,.43.86,3.68,3.68,0,0,1,.11.86,3.61,3.61,0,0,1-.11.86,2.24,2.24,0,0,1-.43.86,2.3,2.3,0,0,1-.89.65,3.67,3.67,0,0,1-1.49.26H63.55V27h-1.5Zm1.5,4.06h2.2a2,2,0,0,0,.52-.07,1.48,1.48,0,0,0,.49-.23,1.2,1.2,0,0,0,.36-.43,1.49,1.49,0,0,0,.14-.68,1.75,1.75,0,0,0-.12-.7,1.11,1.11,0,0,0-.32-.44,1.16,1.16,0,0,0-.47-.22,2.56,2.56,0,0,0-.56-.06H63.55Z"/><path class="cls-2" d="M70,18.38h1.5v3.41h3.9V18.38h1.5V27h-1.5V23.09h-3.9V27H70Z"/><path class="cls-2" d="M82.37,18.18a4,4,0,0,1,1.72.36,3.86,3.86,0,0,1,1.29,1,4.33,4.33,0,0,1,.81,1.43,5.47,5.47,0,0,1,0,3.47,4.33,4.33,0,0,1-.81,1.43,3.79,3.79,0,0,1-1.29,1,4.37,4.37,0,0,1-3.44,0,3.79,3.79,0,0,1-1.29-1,4.3,4.3,0,0,1-.81-1.43,5.47,5.47,0,0,1,0-3.47,4.3,4.3,0,0,1,.81-1.43,3.86,3.86,0,0,1,1.29-1A4,4,0,0,1,82.37,18.18Zm0,1.22a2.4,2.4,0,0,0-1.18.28,2.31,2.31,0,0,0-.81.74,3.32,3.32,0,0,0-.46,1.05,4.89,4.89,0,0,0,0,2.4,3.32,3.32,0,0,0,.46,1,2.31,2.31,0,0,0,.81.74,2.67,2.67,0,0,0,2.36,0,2.32,2.32,0,0,0,.81-.74,3.31,3.31,0,0,0,.46-1,4.86,4.86,0,0,0,0-2.4,3.32,3.32,0,0,0-.46-1.05,2.32,2.32,0,0,0-.81-.74A2.4,2.4,0,0,0,82.37,19.4Z"/><path class="cls-2" d="M87,18.38H94v1.3H91.24V27h-1.5V19.68H87Z"/><path class="cls-2" d="M98.61,18.18a4,4,0,0,1,1.72.36,3.86,3.86,0,0,1,1.29,1,4.3,4.3,0,0,1,.81,1.43,5.45,5.45,0,0,1,0,3.47,4.3,4.3,0,0,1-.81,1.43,3.79,3.79,0,0,1-1.29,1,4.36,4.36,0,0,1-3.44,0,3.79,3.79,0,0,1-1.29-1,4.33,4.33,0,0,1-.81-1.43,5.47,5.47,0,0,1,0-3.47,4.33,4.33,0,0,1,.81-1.43,3.87,3.87,0,0,1,1.29-1A4,4,0,0,1,98.61,18.18Zm0,1.22a2.4,2.4,0,0,0-1.18.28,2.32,2.32,0,0,0-.81.74,3.32,3.32,0,0,0-.46,1.05,4.86,4.86,0,0,0,0,2.4,3.31,3.31,0,0,0,.46,1,2.32,2.32,0,0,0,.81.74,2.67,2.67,0,0,0,2.37,0,2.31,2.31,0,0,0,.81-.74,3.29,3.29,0,0,0,.46-1,4.86,4.86,0,0,0,0-2.4,3.3,3.3,0,0,0-.46-1.05,2.32,2.32,0,0,0-.81-.74A2.4,2.4,0,0,0,98.61,19.4Z"/><path class="cls-2" d="M111.55,27h-1l-.23-1a3.56,3.56,0,0,1-1.2.95,3.4,3.4,0,0,1-1.38.26,4,4,0,0,1-1.72-.35,3.79,3.79,0,0,1-1.29-1,4.3,4.3,0,0,1-.81-1.43,5.47,5.47,0,0,1,0-3.47,4.3,4.3,0,0,1,.81-1.43,3.86,3.86,0,0,1,1.29-1,4,4,0,0,1,1.72-.36,4.66,4.66,0,0,1,1.33.19,3.54,3.54,0,0,1,1.12.55,3.07,3.07,0,0,1,.82.92,3.23,3.23,0,0,1,.41,1.27H110a1.84,1.84,0,0,0-.76-1.27,2.18,2.18,0,0,0-.67-.32,2.77,2.77,0,0,0-.78-.11,2.4,2.4,0,0,0-1.18.28,2.31,2.31,0,0,0-.81.74,3.32,3.32,0,0,0-.46,1.05,4.89,4.89,0,0,0,0,2.4,3.32,3.32,0,0,0,.46,1,2.31,2.31,0,0,0,.81.74,2.4,2.4,0,0,0,1.18.28,2.79,2.79,0,0,0,1-.15,2,2,0,0,0,.75-.47,2,2,0,0,0,.46-.75,3.18,3.18,0,0,0,.17-1h-2.28V22.44h3.65Z"/><path class="cls-2" d="M113.18,18.38h4.09a3.18,3.18,0,0,1,2.13.61,2.13,2.13,0,0,1,.71,1.7,2.49,2.49,0,0,1-.18,1,2.19,2.19,0,0,1-.42.65,1.65,1.65,0,0,1-.47.35l-.34.14v0a1.54,1.54,0,0,1,.41.12,1.22,1.22,0,0,1,.41.31,1.66,1.66,0,0,1,.32.55,2.42,2.42,0,0,1,.13.84,7.59,7.59,0,0,0,.11,1.37,1.81,1.81,0,0,0,.35.88h-1.61a1.4,1.4,0,0,1-.2-.61q0-.34,0-.65a6.09,6.09,0,0,0-.07-1,1.75,1.75,0,0,0-.26-.71,1.12,1.12,0,0,0-.52-.41,2.31,2.31,0,0,0-.85-.13h-2.21V27h-1.5Zm1.5,3.9h2.46a1.56,1.56,0,0,0,1.09-.34,1.33,1.33,0,0,0,.37-1,1.59,1.59,0,0,0-.12-.67,1,1,0,0,0-.33-.4,1.21,1.21,0,0,0-.48-.19,3.2,3.2,0,0,0-.56,0h-2.44Z"/><path class="cls-2" d="M123.92,18.38h1.6l3.3,8.57h-1.61l-.8-2.27H123l-.8,2.27h-1.55Zm-.53,5.16H126l-1.28-3.68h0Z"/><path class="cls-2" d="M129.64,18.38h3.78a3.6,3.6,0,0,1,1.49.26,2.35,2.35,0,0,1,.89.66,2.25,2.25,0,0,1,.43.86,3.71,3.71,0,0,1,.11.86,3.63,3.63,0,0,1-.11.86,2.25,2.25,0,0,1-.43.86,2.3,2.3,0,0,1-.89.65,3.67,3.67,0,0,1-1.49.26h-2.28V27h-1.5Zm1.5,4.06h2.2a2,2,0,0,0,.52-.07,1.48,1.48,0,0,0,.49-.23,1.2,1.2,0,0,0,.36-.43,1.49,1.49,0,0,0,.14-.68,1.75,1.75,0,0,0-.12-.7,1.12,1.12,0,0,0-.32-.44,1.17,1.17,0,0,0-.47-.22,2.56,2.56,0,0,0-.56-.06h-2.22Z"/><path class="cls-2" d="M137.6,18.38h1.5v3.41H143V18.38h1.5V27H143V23.09h-3.9V27h-1.5Z"/><path class="cls-2" d="M148.54,23.59l-3.21-5.21h1.74l2.27,3.84,2.23-3.84h1.68L150,23.59V27h-1.5Z"/></g></g></svg>