<svg xmlns="http://www.w3.org/2000/svg" viewBox="0 0 142.24 27.26"><defs><style>.cls-1{fill:#fff;}</style></defs><title>oleg-chursin-wedding-photography-logo-thin-white</title><g id="Layer_2" data-name="Layer 2"><g id="Layer_1-2" data-name="Layer 1"><path class="cls-1" d="M14,7.72a9.45,9.45,0,0,1-.48,3,7.25,7.25,0,0,1-1.37,2.46A6.38,6.38,0,0,1,10,14.84a7,7,0,0,1-3,.6,7.06,7.06,0,0,1-3-.6A6.36,6.36,0,0,1,1.85,13.2,7.25,7.25,0,0,1,.47,10.75a9.43,9.43,0,0,1-.47-3,9.43,9.43,0,0,1,.47-3A7.26,7.26,0,0,1,1.85,2.24,6.36,6.36,0,0,1,4.06.6,7,7,0,0,1,7,0a7,7,0,0,1,3,.6,6.39,6.39,0,0,1,2.2,1.64A7.26,7.26,0,0,1,13.54,4.7,9.44,9.44,0,0,1,14,7.72ZM.91,7.72a8.56,8.56,0,0,0,.41,2.68,6.58,6.58,0,0,0,1.2,2.2A5.7,5.7,0,0,0,7,14.66a5.71,5.71,0,0,0,2.57-.56,5.82,5.82,0,0,0,1.91-1.5,6.6,6.6,0,0,0,1.2-2.2,8.57,8.57,0,0,0,.41-2.68A8.57,8.57,0,0,0,12.7,5a6.61,6.61,0,0,0-1.2-2.2,5.83,5.83,0,0,0-1.91-1.5A5.72,5.72,0,0,0,7,.78a5.7,5.7,0,0,0-4.5,2.05A6.59,6.59,0,0,0,1.32,5,8.56,8.56,0,0,0,.91,7.72Z"/><path class="cls-1" d="M16,.35h.91v14h8.36v.78H16Z"/><path class="cls-1" d="M26.28.35h9.91v.78h-9V7h8.46v.78H27.19v6.48h9.1v.78h-10Z"/><path class="cls-1" d="M37.31,7.8a9.51,9.51,0,0,1,.46-3,7.57,7.57,0,0,1,1.35-2.49A6.48,6.48,0,0,1,41.3.63a6.68,6.68,0,0,1,3-.63,7.07,7.07,0,0,1,2.17.33,5.77,5.77,0,0,1,3.22,2.52,5.6,5.6,0,0,1,.74,2.06h-.87a5.66,5.66,0,0,0-1.86-3A5.18,5.18,0,0,0,44.29.78a5.7,5.7,0,0,0-2.62.58,5.64,5.64,0,0,0-1.9,1.55,6.83,6.83,0,0,0-1.16,2.24,8.93,8.93,0,0,0-.39,2.65,9,9,0,0,0,.38,2.65,6.37,6.37,0,0,0,1.14,2.18,5.42,5.42,0,0,0,1.89,1.48,6.07,6.07,0,0,0,2.66.55,6.18,6.18,0,0,0,2.37-.43A5,5,0,0,0,48.45,13a5.12,5.12,0,0,0,1.1-1.89,6.76,6.76,0,0,0,.31-2.47H44.43V7.87h6.21v7.23h-.78V12h0A4.53,4.53,0,0,1,49,13.41a5,5,0,0,1-1.27,1.09,6.44,6.44,0,0,1-1.63.69,7.44,7.44,0,0,1-4.83-.35,6.37,6.37,0,0,1-2.18-1.63,7,7,0,0,1-1.34-2.43A9.57,9.57,0,0,1,37.31,7.8Z"/><path class="cls-1" d="M58.32,7.72a9.42,9.42,0,0,1,.48-3,7.26,7.26,0,0,1,1.37-2.46A6.37,6.37,0,0,1,62.38.6a7,7,0,0,1,3-.6,6.68,6.68,0,0,1,2.25.34,5.75,5.75,0,0,1,1.6.85,5,5,0,0,1,1.06,1.1,6.11,6.11,0,0,1,.63,1.13,5.48,5.48,0,0,1,.3.91c.05.25.08.4.08.42h-.91a4.39,4.39,0,0,0-.6-1.66,4.59,4.59,0,0,0-1.13-1.25,5,5,0,0,0-1.52-.78,5.81,5.81,0,0,0-6.27,1.79A6.6,6.6,0,0,0,59.64,5a8.56,8.56,0,0,0-.41,2.68,8.56,8.56,0,0,0,.41,2.68,6.59,6.59,0,0,0,1.2,2.2,5.69,5.69,0,0,0,4.5,2.05,4.66,4.66,0,0,0,2-.44A5.51,5.51,0,0,0,69,13a5.82,5.82,0,0,0,1.13-1.69,5.75,5.75,0,0,0,.49-2h.91a7.21,7.21,0,0,1-.65,2.44,6.8,6.8,0,0,1-1.34,1.93,5.86,5.86,0,0,1-4.18,1.72,7.05,7.05,0,0,1-3-.6,6.36,6.36,0,0,1-2.21-1.64,7.25,7.25,0,0,1-1.37-2.46A9.42,9.42,0,0,1,58.32,7.72Z"/><path class="cls-1" d="M73.42.35h.91V7h9.42V.35h.91V15.09h-.91V7.83H74.32v7.27h-.91Z"/><path class="cls-1" d="M88.16.35V9.19q0,.43,0,1a6.33,6.33,0,0,0,.67,2.38,3.62,3.62,0,0,0,.82,1.05,3.88,3.88,0,0,0,1.27.74,5.28,5.28,0,0,0,1.83.28,6,6,0,0,0,2.28-.38,3.65,3.65,0,0,0,1.49-1.09,4.4,4.4,0,0,0,.82-1.72,9.57,9.57,0,0,0,.25-2.27V.35h.91V9.19a10.3,10.3,0,0,1-.28,2.46,5.2,5.2,0,0,1-.94,2A4.47,4.47,0,0,1,95.54,15a6.87,6.87,0,0,1-2.76.49,6.68,6.68,0,0,1-2.23-.33A4.76,4.76,0,0,1,89,14.26a4,4,0,0,1-1-1.21,6.94,6.94,0,0,1-.54-1.37,6.82,6.82,0,0,1-.23-1.34q0-.65,0-1.15V.35Z"/><path class="cls-1" d="M101.12.35h6.15a8,8,0,0,1,1.82.2,4.28,4.28,0,0,1,1.49.64,3.06,3.06,0,0,1,1,1.17,4,4,0,0,1,.36,1.8,3.83,3.83,0,0,1-.84,2.51,3.65,3.65,0,0,1-2.32,1.27V8a3.51,3.51,0,0,1,1.6.54,2.62,2.62,0,0,1,.88,1,4.11,4.11,0,0,1,.37,1.32,12.8,12.8,0,0,1,.08,1.45v.85a6.65,6.65,0,0,0,0,.77,3.88,3.88,0,0,0,.13.67,1.5,1.5,0,0,0,.26.52h-1a2.68,2.68,0,0,1-.32-1.21q0-.69,0-1.43T110.72,11a3.16,3.16,0,0,0-.39-1.31,2.35,2.35,0,0,0-1-.93,4.65,4.65,0,0,0-2-.35H102v6.71h-.91Zm6.15,7.25a5.47,5.47,0,0,0,1.5-.2A3.17,3.17,0,0,0,110,6.79a2.89,2.89,0,0,0,.79-1.05A3.69,3.69,0,0,0,111,4.21a3,3,0,0,0-.31-1.41,2.73,2.73,0,0,0-.83-1,3.4,3.4,0,0,0-1.2-.54,6,6,0,0,0-1.42-.17H102V7.6Z"/><path class="cls-1" d="M123.75,4.56a4,4,0,0,0-.4-1.65,3.45,3.45,0,0,0-1-1.18A4.29,4.29,0,0,0,120.89,1,7,7,0,0,0,119,.78a6.73,6.73,0,0,0-1.33.14,4.22,4.22,0,0,0-1.32.51,3,3,0,0,0-1,1A2.75,2.75,0,0,0,115,3.92a2.29,2.29,0,0,0,.43,1.45,3.15,3.15,0,0,0,1.13.9,7.49,7.49,0,0,0,1.61.55l1.84.39q.95.19,1.85.44a6.34,6.34,0,0,1,1.61.7,3.47,3.47,0,0,1,1.15,1.16,3.38,3.38,0,0,1,.43,1.79,3.57,3.57,0,0,1-.5,1.94,4.18,4.18,0,0,1-1.25,1.28,5.18,5.18,0,0,1-1.67.71,7.69,7.69,0,0,1-1.77.22,10.19,10.19,0,0,1-2.44-.28,5.46,5.46,0,0,1-2-.91,4.39,4.39,0,0,1-1.33-1.62,5.27,5.27,0,0,1-.46-2.42h.91a4.11,4.11,0,0,0,.35,2.05A3.71,3.71,0,0,0,116,13.65a4.75,4.75,0,0,0,1.72.77,8.92,8.92,0,0,0,2.08.24,6.6,6.6,0,0,0,1.41-.17,4.35,4.35,0,0,0,1.38-.56,3.43,3.43,0,0,0,1.05-1,2.86,2.86,0,0,0,.42-1.61,2.49,2.49,0,0,0-.43-1.52,3.19,3.19,0,0,0-1.15-.95,7.38,7.38,0,0,0-1.61-.58q-.9-.22-1.85-.4t-1.84-.43a6.32,6.32,0,0,1-1.61-.67,3.46,3.46,0,0,1-1.14-1.09,3.12,3.12,0,0,1-.43-1.72,3.5,3.5,0,0,1,.44-1.81A3.64,3.64,0,0,1,115.67.9a5.13,5.13,0,0,1,1.6-.68A7.38,7.38,0,0,1,119,0a8.64,8.64,0,0,1,2.16.26,5.15,5.15,0,0,1,1.75.81,4,4,0,0,1,1.21,1.41,5,5,0,0,1,.52,2.09Z"/><path class="cls-1" d="M127.14.35H128V15.09h-.91Z"/><path class="cls-1" d="M130.65.35h1.14l9.31,13.52h0V.35H142V15.09H141L131.59,1.47h0V15.09h-.91Z"/><path class="cls-1" d="M1,18.4h.55l2.25,8.08h0L6.15,18.4h.67l2.33,8.08h0l2.22-8.08H12L9.47,27.05H8.86L6.49,18.86h0L4.12,27.05H3.53Z"/><path class="cls-1" d="M12.64,18.4h5.82v.46H13.18v3.47h5v.46h-5v3.8h5.34v.46H12.64Z"/><path class="cls-1" d="M19.43,18.4h2.84a4.52,4.52,0,0,1,1.93.36,3.26,3.26,0,0,1,1.23,1,3.68,3.68,0,0,1,.65,1.38,6.78,6.78,0,0,1,.19,1.6A6,6,0,0,1,26,24.43a3.74,3.74,0,0,1-.73,1.38,3.45,3.45,0,0,1-1.25.92,4.44,4.44,0,0,1-1.8.33H19.43Zm2.86,8.19a4.13,4.13,0,0,0,1.22-.19,3,3,0,0,0,1.11-.63,3.2,3.2,0,0,0,.81-1.19,4.91,4.91,0,0,0,.31-1.87,5.7,5.7,0,0,0-.18-1.51,3.71,3.71,0,0,0-.46-1.06,2.4,2.4,0,0,0-.65-.68,3.23,3.23,0,0,0-.76-.38,3.68,3.68,0,0,0-.79-.18,6.68,6.68,0,0,0-.71,0H20v7.73Z"/><path class="cls-1" d="M27.51,18.4h2.83a4.52,4.52,0,0,1,1.93.36,3.26,3.26,0,0,1,1.23,1,3.68,3.68,0,0,1,.65,1.38,6.78,6.78,0,0,1,.19,1.6,6,6,0,0,1-.24,1.71,3.74,3.74,0,0,1-.73,1.38,3.44,3.44,0,0,1-1.25.92,4.44,4.44,0,0,1-1.8.33H27.51Zm2.86,8.19a4.13,4.13,0,0,0,1.22-.19,3,3,0,0,0,1.11-.63,3.2,3.2,0,0,0,.81-1.19,4.91,4.91,0,0,0,.31-1.87,5.7,5.7,0,0,0-.18-1.51,3.71,3.71,0,0,0-.46-1.06,2.39,2.39,0,0,0-.65-.68,3.22,3.22,0,0,0-.76-.38A3.69,3.69,0,0,0,31,18.9a6.68,6.68,0,0,0-.71,0H28v7.73Z"/><path class="cls-1" d="M35.59,18.4h.53v8.65h-.53Z"/><path class="cls-1" d="M37.65,18.4h.67l5.46,7.94h0V18.4h.53v8.65h-.63l-5.5-8h0v8h-.53Z"/><path class="cls-1" d="M45.55,22.78A5.58,5.58,0,0,1,45.82,21a4.44,4.44,0,0,1,.79-1.46,3.8,3.8,0,0,1,1.28-1,3.91,3.91,0,0,1,1.74-.37,4.16,4.16,0,0,1,1.27.19,3.38,3.38,0,0,1,1.89,1.48,3.31,3.31,0,0,1,.44,1.21h-.51a3.32,3.32,0,0,0-1.09-1.78,3,3,0,0,0-2-.64,3.35,3.35,0,0,0-1.54.34A3.31,3.31,0,0,0,47,19.9a4,4,0,0,0-.68,1.31,5.44,5.44,0,0,0,0,3.11A3.74,3.74,0,0,0,47,25.61a3.18,3.18,0,0,0,1.11.87,3.56,3.56,0,0,0,1.56.32A3.64,3.64,0,0,0,51,26.54a3,3,0,0,0,1-.71,3,3,0,0,0,.65-1.11,4,4,0,0,0,.18-1.45H49.73v-.46h3.65v4.24h-.46V25.21h0a2.64,2.64,0,0,1-.47.85,2.92,2.92,0,0,1-.75.64,3.76,3.76,0,0,1-1,.41,4.37,4.37,0,0,1-2.83-.21,3.73,3.73,0,0,1-1.28-1,4.1,4.1,0,0,1-.79-1.42A5.62,5.62,0,0,1,45.55,22.78Z"/><path class="cls-1" d="M58.21,18.4H61.9a4.3,4.3,0,0,1,.81.08,2.16,2.16,0,0,1,.82.35,2,2,0,0,1,.64.74,2.67,2.67,0,0,1,.25,1.25,2.22,2.22,0,0,1-.7,1.76,3,3,0,0,1-2,.62h-3v3.85h-.53Zm.53,4.34h3a2.48,2.48,0,0,0,1-.18,1.71,1.71,0,0,0,1-1.07,2.22,2.22,0,0,0,.11-.68,2.73,2.73,0,0,0-.07-.58,1.77,1.77,0,0,0-.29-.64,1.75,1.75,0,0,0-.61-.52,2.22,2.22,0,0,0-1-.21H58.75Z"/><path class="cls-1" d="M65.37,18.4h.53v3.93h5.53V18.4H72v8.65h-.53V22.79H65.91v4.27h-.53Z"/><path class="cls-1" d="M81.33,22.73a5.55,5.55,0,0,1-.28,1.77,4.25,4.25,0,0,1-.81,1.44,3.74,3.74,0,0,1-1.29,1,4.46,4.46,0,0,1-3.47,0,3.72,3.72,0,0,1-1.3-1,4.25,4.25,0,0,1-.81-1.44,5.8,5.8,0,0,1,0-3.55,4.26,4.26,0,0,1,.81-1.44,3.73,3.73,0,0,1,1.3-1,4.46,4.46,0,0,1,3.47,0,3.75,3.75,0,0,1,1.29,1A4.26,4.26,0,0,1,81.05,21,5.55,5.55,0,0,1,81.33,22.73Zm-7.69,0a5,5,0,0,0,.24,1.58,3.87,3.87,0,0,0,.7,1.29,3.34,3.34,0,0,0,2.64,1.21,3.35,3.35,0,0,0,1.51-.33,3.43,3.43,0,0,0,1.12-.88,3.87,3.87,0,0,0,.7-1.29,5.22,5.22,0,0,0,0-3.15,3.87,3.87,0,0,0-.7-1.29A3.43,3.43,0,0,0,78.73,19a3.35,3.35,0,0,0-1.51-.33,3.34,3.34,0,0,0-2.64,1.21,3.87,3.87,0,0,0-.7,1.29A5,5,0,0,0,73.64,22.73Z"/><path class="cls-1" d="M81,18.86V18.4h6.63v.46H84.6v8.19h-.53V18.86Z"/><path class="cls-1" d="M95.58,22.73a5.55,5.55,0,0,1-.28,1.77,4.25,4.25,0,0,1-.81,1.44,3.74,3.74,0,0,1-1.29,1,4.46,4.46,0,0,1-3.47,0,3.72,3.72,0,0,1-1.3-1,4.25,4.25,0,0,1-.81-1.44,5.8,5.8,0,0,1,0-3.55,4.26,4.26,0,0,1,.81-1.44,3.73,3.73,0,0,1,1.3-1,4.46,4.46,0,0,1,3.47,0,3.75,3.75,0,0,1,1.29,1A4.26,4.26,0,0,1,95.3,21,5.55,5.55,0,0,1,95.58,22.73Zm-7.69,0a5,5,0,0,0,.24,1.58,3.87,3.87,0,0,0,.7,1.29,3.34,3.34,0,0,0,2.64,1.21A3.35,3.35,0,0,0,93,26.47a3.43,3.43,0,0,0,1.12-.88,3.87,3.87,0,0,0,.7-1.29,5.22,5.22,0,0,0,0-3.15,3.87,3.87,0,0,0-.7-1.29A3.43,3.43,0,0,0,93,19a3.35,3.35,0,0,0-1.51-.33,3.34,3.34,0,0,0-2.64,1.21,3.87,3.87,0,0,0-.7,1.29A5,5,0,0,0,87.89,22.73Z"/><path class="cls-1" d="M96.41,22.78A5.58,5.58,0,0,1,96.68,21a4.44,4.44,0,0,1,.79-1.46,3.8,3.8,0,0,1,1.28-1,3.91,3.91,0,0,1,1.74-.37,4.16,4.16,0,0,1,1.27.19,3.38,3.38,0,0,1,1.89,1.48,3.31,3.31,0,0,1,.44,1.21h-.51a3.32,3.32,0,0,0-1.09-1.78,3,3,0,0,0-2-.64A3.35,3.35,0,0,0,99,19a3.31,3.31,0,0,0-1.11.91,4,4,0,0,0-.68,1.31,5.44,5.44,0,0,0,0,3.11,3.74,3.74,0,0,0,.67,1.28,3.18,3.18,0,0,0,1.11.87,3.56,3.56,0,0,0,1.56.32,3.64,3.64,0,0,0,1.39-.25,3,3,0,0,0,1-.71,3,3,0,0,0,.65-1.11,4,4,0,0,0,.18-1.45h-3.19v-.46h3.65v4.24h-.46V25.21h0a2.64,2.64,0,0,1-.47.85,2.92,2.92,0,0,1-.75.64,3.76,3.76,0,0,1-1,.41,4.37,4.37,0,0,1-2.83-.21,3.73,3.73,0,0,1-1.28-1,4.1,4.1,0,0,1-.79-1.42A5.62,5.62,0,0,1,96.41,22.78Z"/><path class="cls-1" d="M105.7,18.4h3.61a4.72,4.72,0,0,1,1.07.12,2.5,2.5,0,0,1,.87.38,1.79,1.79,0,0,1,.59.68,2.34,2.34,0,0,1,.21,1.05,2.25,2.25,0,0,1-.49,1.47,2.14,2.14,0,0,1-1.36.75v0a2.06,2.06,0,0,1,.94.31,1.54,1.54,0,0,1,.51.59,2.39,2.39,0,0,1,.22.78,7.48,7.48,0,0,1,0,.85v.5a3.9,3.9,0,0,0,0,.45,2.24,2.24,0,0,0,.08.39.9.9,0,0,0,.15.3h-.59a1.57,1.57,0,0,1-.19-.71c0-.27,0-.55,0-.84s0-.58,0-.87a1.85,1.85,0,0,0-.23-.77,1.39,1.39,0,0,0-.61-.55,2.73,2.73,0,0,0-1.18-.21h-3.08v3.94h-.53Zm3.61,4.25a3.2,3.2,0,0,0,.88-.12,1.86,1.86,0,0,0,.7-.36,1.7,1.7,0,0,0,.46-.62,2.18,2.18,0,0,0,.17-.9,1.76,1.76,0,0,0-.18-.83,1.6,1.6,0,0,0-.48-.56,2,2,0,0,0-.7-.32,3.54,3.54,0,0,0-.84-.1h-3.08v3.79Z"/><path class="cls-1" d="M115.9,18.4h.58l3.42,8.65h-.57l-1.09-2.77H114.1L113,27.05h-.57Zm2.17,5.42-1.85-4.9h0l-1.93,4.9Z"/><path class="cls-1" d="M120.52,18.4h3.68a4.3,4.3,0,0,1,.81.08,2.16,2.16,0,0,1,.82.35,2,2,0,0,1,.64.74,2.67,2.67,0,0,1,.25,1.25,2.22,2.22,0,0,1-.7,1.76,3,3,0,0,1-2,.62h-3v3.85h-.53Zm.53,4.34h3a2.48,2.48,0,0,0,1-.18,1.71,1.71,0,0,0,1-1.07,2.22,2.22,0,0,0,.11-.68,2.73,2.73,0,0,0-.07-.58,1.77,1.77,0,0,0-.29-.64,1.75,1.75,0,0,0-.61-.52,2.22,2.22,0,0,0-1-.21h-3.11Z"/><path class="cls-1" d="M127.68,18.4h.53v3.93h5.53V18.4h.53v8.65h-.53V22.79h-5.53v4.27h-.53Z"/><path class="cls-1" d="M141.65,18.4h.59l-3.48,5v3.62h-.53V23.43l-3.45-5h.61L138.51,23Z"/></g></g></svg>